REM DIRINDEX 1\5,1\2\6,1\2\7,1\3\8,1\3\9,1\3\10,1\3\11,1\4\12,1\4\13,1\4\14
REM DIRNAME cjc042,folder01,folder02,folder03,folder04,folder05,folder06,folder07,folder08,folder09,folder10,folder11,folder12,folder13
TITLE ""
FILE "4Q_t_032-047.mp3" MP3
  TRACK 01 AUDIO
    TITLE "6:cjc042_1042"
    INDEX 01 00:00:00
  TRACK 02 AUDIO
    TITLE "0:"
    INDEX 01 00:00:74
  TRACK 03 AUDIO
    TITLE "7:cjc042_1043"
    INDEX 01 00:01:44
  TRACK 04 AUDIO
    TITLE "0:"
    INDEX 01 00:02:61
  TRACK 05 AUDIO
    TITLE "6:cjc042_1044"
    INDEX 01 00:03:35
  TRACK 06 AUDIO
    TITLE "0:"
    INDEX 01 00:04:50
  TRACK 07 AUDIO
    TITLE "7:cjc042_1045"
    INDEX 01 00:05:20
  TRACK 08 AUDIO
    TITLE "0:"
    INDEX 01 00:10:04
  TRACK 09 AUDIO
    TITLE "6:cjc042_1046"
    INDEX 01 00:10:53
  TRACK 10 AUDIO
    TITLE "0:"
    INDEX 01 00:11:46
  TRACK 11 AUDIO
    TITLE "7:cjc042_1047"
    INDEX 01 00:12:18
  TRACK 12 AUDIO
    TITLE "0:"
    INDEX 01 00:13:26
  TRACK 13 AUDIO
    TITLE "6:cjc042_1048"
    INDEX 01 00:13:73
  TRACK 14 AUDIO
    TITLE "0:"
    INDEX 01 00:15:11
  TRACK 15 AUDIO
    TITLE "7:cjc042_1049"
    INDEX 01 00:15:58
  TRACK 16 AUDIO
    TITLE "0:"
    INDEX 01 00:21:57
  TRACK 17 AUDIO
    TITLE "6:cjc042_1050"
    INDEX 01 00:22:29
  TRACK 18 AUDIO
    TITLE "0:"
    INDEX 01 00:23:34
  TRACK 19 AUDIO
    TITLE "7:cjc042_1051"
    INDEX 01 00:24:08
  TRACK 20 AUDIO
    TITLE "0:"
    INDEX 01 00:27:34
  TRACK 21 AUDIO
    TITLE "6:cjc042_1052"
    INDEX 01 00:28:02
  TRACK 22 AUDIO
    TITLE "0:"
    INDEX 01 00:29:13
  TRACK 23 AUDIO
    TITLE "7:cjc042_1053"
    INDEX 01 00:29:64
  TRACK 24 AUDIO
    TITLE "0:"
    INDEX 01 00:32:43
  TRACK 25 AUDIO
    TITLE "6:cjc042_1054"
    INDEX 01 00:33:13
  TRACK 26 AUDIO
    TITLE "0:"
    INDEX 01 00:34:22
  TRACK 27 AUDIO
    TITLE "7:cjc042_1055"
    INDEX 01 00:34:65
  TRACK 28 AUDIO
    TITLE "0:"
    INDEX 01 00:37:10
  TRACK 29 AUDIO
    TITLE "6:cjc042_1056"
    INDEX 01 00:37:54
  TRACK 30 AUDIO
    TITLE "0:"
    INDEX 01 00:38:55
  TRACK 31 AUDIO
    TITLE "7:cjc042_1057"
    INDEX 01 00:39:29
  TRACK 32 AUDIO
    TITLE "0:"
    INDEX 01 00:40:24
  TRACK 33 AUDIO
    TITLE "6:cjc042_1058"
    INDEX 01 00:40:68
  TRACK 34 AUDIO
    TITLE "0:"
    INDEX 01 00:41:67
  TRACK 35 AUDIO
    TITLE "7:cjc042_1059"
    INDEX 01 00:42:37
  TRACK 36 AUDIO
    TITLE "0:"
    INDEX 01 00:44:52
  TRACK 37 AUDIO
    TITLE "6:cjc042_1060"
    INDEX 01 00:45:22
  TRACK 38 AUDIO
    TITLE "0:"
    INDEX 01 00:46:31
  TRACK 39 AUDIO
    TITLE "7:cjc042_1061"
    INDEX 01 00:46:74
  TRACK 40 AUDIO
    TITLE "0:"
    INDEX 01 00:53:11
  TRACK 41 AUDIO
    TITLE "6:cjc042_1062"
    INDEX 01 00:53:55
  TRACK 42 AUDIO
    TITLE "0:"
    INDEX 01 00:54:62
  TRACK 43 AUDIO
    TITLE "7:cjc042_1063"
    INDEX 01 00:55:34
  TRACK 44 AUDIO
    TITLE "0:"
    INDEX 01 00:57:07
  TRACK 45 AUDIO
    TITLE "6:cjc042_1064"
    INDEX 01 00:57:56
  TRACK 46 AUDIO
    TITLE "0:"
    INDEX 01 00:58:64
  TRACK 47 AUDIO
    TITLE "7:cjc042_1065"
    INDEX 01 00:59:32
  TRACK 48 AUDIO
    TITLE "0:"
    INDEX 01 01:01:34
  TRACK 49 AUDIO
    TITLE "6:cjc042_1066"
    INDEX 01 01:02:08
  TRACK 50 AUDIO
    TITLE "0:"
    INDEX 01 01:03:16
  TRACK 51 AUDIO
    TITLE "7:cjc042_1067"
    INDEX 01 01:03:65
  TRACK 52 AUDIO
    TITLE "0:"
    INDEX 01 01:06:43
  TRACK 53 AUDIO
    TITLE "6:cjc042_1068"
    INDEX 01 01:07:14
  TRACK 54 AUDIO
    TITLE "0:"
    INDEX 01 01:08:19
  TRACK 55 AUDIO
    TITLE "7:cjc042_1069"
    INDEX 01 01:08:64
  TRACK 56 AUDIO
    TITLE "0:"
    INDEX 01 01:10:22
  TRACK 57 AUDIO
    TITLE "6:cjc042_1070"
    INDEX 01 01:10:67
  TRACK 58 AUDIO
    TITLE "0:"
    INDEX 01 01:12:01
  TRACK 59 AUDIO
    TITLE "7:cjc042_1071"
    INDEX 01 01:12:50
  TRACK 60 AUDIO
    TITLE "0:"
    INDEX 01 01:17:35
  TRACK 61 AUDIO
    TITLE "6:cjc042_1072"
    INDEX 01 01:18:04
  TRACK 62 AUDIO
    TITLE "0:"
    INDEX 01 01:19:07
  TRACK 63 AUDIO
    TITLE "7:cjc042_1073"
    INDEX 01 01:19:56
  TRACK 64 AUDIO
    TITLE "0:"
    INDEX 01 01:21:10
